<svg width="337" height="416" viewBox="0 0 337 416" fill="none" xmlns="http://www.w3.org/2000/svg">
<path fill-rule="evenodd" clip-rule="evenodd" d="M159.104 35.4553C198.213 39.5167 219.998 80.2633 250.76 104.6C279.674 127.475 322.03 138.74 333.701 173.585C345.386 208.47 323.381 244.482 308.951 278.336C295.787 309.219 279.549 337.878 254.222 360.047C226.697 384.14 195.662 406.511 159.104 409.5C120.891 412.625 81.3047 401.031 51.8888 376.592C23.4693 352.981 11.3162 316.179 3.47525 280.203C-3.71289 247.223 1.22939 214.376 9.39467 181.62C18.2049 146.278 26.248 109.518 52.3852 83.9994C80.9921 56.0698 119.217 31.313 159.104 35.4553Z" fill="#E9E7FC"/>
<path fill-rule="evenodd" clip-rule="evenodd" d="M224.366 383.22C225.134 380.135 224.004 377.675 220.759 375.858C220.48 375.124 214.209 372.745 209.226 369.251C204.75 366.113 201.503 361.804 201.367 361.566C201.367 361.566 200.36 359.239 200.245 358.189C199.695 353.153 200.013 349.851 199.674 348.285C201.963 347.986 207.592 200.246 206.682 195.349C208.172 195.024 209.754 194.68 211.175 193.845C211.288 193.816 211.102 193.489 211.107 193.427C214.673 186.471 209.203 162.819 205.775 156.271C208.497 156.2 212.083 155.832 213.769 153.573C214.567 153.313 215.07 152.858 215.457 152.128C215.903 151.432 216.317 150.702 216.69 149.953C218.504 146.209 219.623 142.051 219.018 137.926C219.133 137.89 219.727 137.886 219.756 137.721C219.815 136.707 219.627 135.813 219.321 134.855C216.206 124.066 212.456 113.443 207.499 103.286C205.015 97.8491 199.876 95.8652 194.551 93.8243C191.99 92.8242 189.427 91.67 186.754 91.015C186.72 90.8292 186.88 90.2638 186.529 90.3098C186.097 90.3995 186.182 91.0908 186.022 91.4788C179.84 86.4506 183.76 83.8595 180.033 81.1058C176.176 79.1165 171.472 79.0357 167.219 79.4662C165.65 79.5113 164.395 80.214 164.025 81.7831C162.676 85.0297 159.517 87.4193 156.069 88.1518C155.784 87.648 155.001 86.203 154.562 86.6592C149.584 86.828 142.035 88.6441 137.375 90.0027C132.697 91.1899 127.964 93.3571 126.74 98.4078C124.52 107.408 128.053 144.395 133.848 151.518L134.036 151.522C135.064 152.566 136.46 153.332 138.042 153.845C138.007 157.175 136.951 160.426 136.425 163.683C135.241 169.59 134.332 175.502 133.013 181.44C133.007 182.102 130.499 191.155 132.972 189.339C133.482 189.589 134.108 189.861 134.657 190.094C132.03 196.044 130.828 205.644 131.014 212.994C131.061 217.371 130.878 221.206 129.89 225.688C122.579 263.668 116.134 348.617 115.982 349.752C115.843 350.838 116.768 356.73 115.982 358.284C115.285 359.663 112.31 358.849 111.741 359.381C110.263 361.772 110.94 363.296 109.728 365.684C109.106 366.236 107.716 367.445 107.26 368.295C106.337 369.178 91.0505 379.145 91.6701 380.658C91.6701 380.658 91.6004 381.384 91.5769 381.541C90.2736 389.076 92.4439 389.013 99.4655 390.122C109.723 391.92 117.389 388.461 126.057 383.84C128.938 381.909 133.032 378.224 131.7 373.859C131.663 373.592 130.872 369.001 130.559 366.67C130.559 366.67 131.409 364.803 128.121 365.036C128.661 364.446 129.849 356.806 129.444 355.796C129.186 353.192 129.586 350.829 129.46 348.15C130.837 348.252 155.019 234.34 170.186 227.262C170.28 228.018 170.098 229.427 171.109 229.568C175.8 265.935 187.08 347.406 187.598 347.549C186.821 351.702 186.844 361.33 186.83 365.452C186.711 365.563 186.165 366.047 186.077 366.165C186.058 366.134 185.703 366.487 185.685 366.496L185.637 366.387C184.039 369.967 181.71 373.654 183.768 377.162C182.241 377.051 182.486 379.972 182.418 381.316C183.288 383.946 208.021 391.042 213.548 391.379C215.364 391.694 223.821 389.022 225.448 388.637C227.557 388.246 225.488 384.351 224.366 383.22Z" fill="white"/>
<path fill-rule="evenodd" clip-rule="evenodd" d="M165.054 80.8993C165.855 80.8745 166.008 81.8754 165.46 82.2904L165.438 82.3069C164.971 82.6356 164.752 82.9297 164.499 83.4542C163.265 86.7005 159.784 88.5623 156.379 87.8729C157.561 90.0647 158.356 92.1861 159.539 94.3409C164.99 105.498 182.892 109.127 185.033 93.8194C181.752 93.1896 179.809 85.8606 181.913 83.6741L181.97 83.9402C182.577 86.8108 182.992 89.7497 185.182 91.9142C185.249 91.9335 185.312 91.9395 185.375 91.9395C185.459 91.5465 185.555 91.1578 185.675 90.7765C185.966 89.8463 187.425 90.0213 187.384 91.0276C191.752 92.35 195.95 94.2232 200.128 96.0328C203.601 97.5383 206.441 100.231 208.059 103.641C212.596 112.97 216.06 122.816 219.08 132.722C219.282 134.061 221.54 139.036 219.718 139.514C220.165 143.612 219.022 147.758 217.256 151.438C216.437 152.821 215.859 154.738 214.213 155.314C212.504 157.447 209.379 158.001 206.777 158.151C210.276 166.336 215.031 187.184 211.815 195.317C212.101 196.652 208.396 197.285 207.404 197.59C208.203 202.334 208.029 207.221 207.685 211.999C204.458 252.754 203.846 293.732 207.24 334.497C207.44 337.038 207.655 339.579 207.883 342.118L208.021 343.641C208.201 345.669 208.355 347.688 208.308 349.732C208.293 350.441 207.701 350.867 207.109 350.903C205.122 352.163 202.454 352.174 200.155 352.477C200.561 354.679 200.789 358.114 201.499 359.967C202.978 359.583 203.932 360.953 202.457 361.727C204.272 362.727 205.206 364.642 206.658 365.987C210.648 364.376 211.391 366.782 208.131 367.331C209.017 368.066 209.958 368.745 210.931 369.39L211 369.381C212.151 369.208 214.319 368.262 214.864 369.514C215.108 370.42 213.983 370.708 213.167 370.818C213.891 371.272 214.617 371.722 215.343 372.173C215.978 371.895 216.609 371.548 217.257 371.325C218.852 370.972 218.99 373.029 216.908 373.145C218.212 374.102 220.012 373.551 220.845 374.902C223.895 376.125 225.337 379.82 224.625 382.773C225.696 383.719 226.448 385.138 226.535 386.563C226.741 388.09 225.518 389.526 223.861 389.928C221.995 390.545 220.102 391.108 218.214 391.638L218.016 391.706C216.46 392.232 214.761 392.704 213.143 392.612C203.546 392.044 190.749 388.127 183.068 383.253C181.152 381.822 180.817 378.284 183.454 377.153C182.239 374.964 182.819 373.374 183.334 370.99C183.692 369.435 184.178 367.84 185.057 366.402C185.135 366.274 185.322 366.313 185.333 366.438C185.448 368.065 185.295 369.729 185.173 371.366L185.16 371.548C185.05 373.059 184.804 373.615 185.216 375.045C186.204 378.693 195.72 380.515 199.46 382.02C202.396 382.924 205.376 383.733 208.398 384.444L208.62 384.492C211.172 385.05 213.799 385.894 216.486 385.456C217.88 384.448 219.971 384.732 221.34 383.579C223.406 381.363 221.782 378.115 220.335 376.101C218.935 376.545 217.739 375.351 216.709 374.719L216.67 374.696C215.618 374.035 214.569 374.498 213.515 373.839L213.277 373.883C209.406 374.617 206.409 375.453 212.583 373.259C211.566 372.627 210.547 371.991 209.559 371.321C207.531 371.564 205.31 372.622 203.425 372.718C204.694 371.544 206.424 370.893 208.054 370.248C207.105 369.532 206.202 368.765 205.394 367.922L204.622 368.114C199.881 369.283 198.017 369.621 204.4 366.769C203.145 365.384 202.941 363.333 201.561 362.03C199.341 362.492 197.302 363.462 195.494 364.715C194.763 365.235 194.212 365.885 193.633 366.535C190.89 370.042 186.639 370.583 185.341 366.034C185.318 365.941 185.465 365.883 185.507 365.962L185.512 365.973C186.133 367.37 188.137 368.503 189.81 367.635L189.861 367.608C191.498 366.76 192.258 365.031 193.547 363.853C195.287 362.292 197.468 361.246 199.718 360.46C199.173 358.48 198.989 354.874 199.051 352.551C195.262 352.728 191.448 352.547 187.726 351.831C188.323 356.151 187.931 361.772 188.205 365.624C188.601 366.917 186.191 367.725 185.934 366.437C185.793 362.269 186.203 356.257 186.842 351.606L186.575 351.542C186.322 351.479 186.057 351.404 185.841 351.283C183.452 351.551 184.104 345.521 183.703 343.825C181.008 306.424 175.332 269.358 170.508 232.204C169.839 231.949 169.72 231.134 169.609 230.452C163.53 234.54 162.319 242.71 159.598 249.043C147.714 281.835 142.404 316.431 134.168 350.199L134.213 350.211C134.246 350.221 134.246 350.226 134.178 350.221L134.163 350.22V350.222C134.672 350.289 135.073 350.82 134.762 351.314C133.835 353.174 131.264 352.516 129.572 352.398C129.737 355.261 129.119 361.44 129.511 363.991C131.598 364.03 131.73 366.312 132.007 367.669L132.028 367.808C132.397 370.126 133.637 374.472 132.711 376.346C134.142 378.039 133.112 380.338 131.627 381.493C130.037 382.661 128.058 383.345 126.26 384.245C117.8 387.641 109.615 394.188 99.2469 391.669L98.7956 391.574C91.5292 390.048 89.4415 389.371 90.8846 382.225C90.292 380.773 90.288 379.183 91.1219 377.898C92.6089 376.002 95.1074 374.965 97.0954 373.524C100.463 371.277 104.047 369.311 107.335 366.971C107.213 366.865 107.383 366.827 107.483 366.844C109.804 365.039 109.587 361.913 111.206 359.683C111.611 358.534 113.656 358.253 115.003 358.413C114.582 356.271 116.637 346.52 116.898 353.408L116.898 353.506C116.903 354.57 117.078 358.119 116.763 358.814C121.233 360.171 122.197 364.438 123.154 367.883L123.215 367.9C123.521 367.978 123.93 368.041 124.082 368.339C125.52 367.431 125.921 365.645 127.314 364.683C126.923 364.38 126.903 363.801 127.102 363.352C127.75 360.99 128.139 354.979 129.118 352.341C124.517 351.656 119.829 351.307 115.334 350.064C114.751 350.634 113.552 350.432 113.599 349.403C114.991 326.984 117.385 304.634 120.403 282.375C122.884 261.541 127.249 240.971 130.289 220.246L130.315 217.401C130.397 208.85 130.627 200.171 133.836 192.121C133.553 191.998 133.273 191.872 132.997 191.739C129.518 193.172 132.259 184.464 132.387 182.894C134.097 173.795 136.112 164.698 137.396 155.542C136.05 155.058 134.806 154.372 133.769 153.374C127.482 148.289 123.837 107.107 126.123 98.8269C127.315 93.6182 132.37 91.0594 137.187 89.8821L137.899 89.6823C143.279 88.1785 148.753 86.8159 154.355 86.481C154.554 86.3013 155.141 86.353 155.218 86.5029C155.568 86.7129 155.902 87.1228 156.183 87.5558C163.959 86.668 161.855 81.6182 165.054 80.8993ZM183.656 377.482C182.567 379.938 184.014 381.807 186.439 382.839C194.837 386.708 204.212 389.817 213.837 390.411C216.774 389.705 219.682 388.539 222.658 387.817L222.787 387.794C223.834 387.603 224.326 387.411 224.236 386.33L224.275 385.893C224.342 385.116 224.399 384.341 224.344 383.565C223.429 385.74 220.688 386.935 218.286 387.375C214.477 389.171 210.211 387.344 206.469 386.575C200.391 384.739 187.24 381.853 183.656 377.482ZM130.897 377.533L130.771 377.572C129.681 377.907 128.573 378.317 127.351 378.015C121.893 379.853 116.58 381.938 111.308 384.109C105.619 386.816 96.4581 389.962 91.5281 383.422C92.2369 386.852 91.2348 388.025 95.9418 388.881C103.411 391.301 109.412 390.062 115.609 386.755C120.15 384.562 125.033 382.818 129.428 380.434L129.488 380.393C130.352 379.779 131.395 378.661 130.897 377.533ZM119.561 362.766C118.136 360.154 114.301 358.719 111.449 359.682C111.159 362.201 111.911 365.022 110.301 367.209C111.726 367.457 113.147 367.743 114.566 368.04L115.865 368.312C116.502 368.451 117.313 368.688 117.206 369.36C117.089 370.102 116.108 369.876 115.456 369.689L115.203 369.615C113.37 369.079 111.541 368.532 109.731 367.92C108.778 368.963 107.497 369.781 106.256 370.571L106.771 370.629C108.575 370.83 110.397 371.013 112.179 371.376C112.958 371.605 112.79 372.66 111.993 372.576C109.865 372.024 107.742 371.401 105.578 371.005C104.519 371.7 103.466 372.399 102.406 373.09C104.492 373.39 106.587 373.417 108.672 373.594C110.022 373.718 110.022 375.551 108.672 375.445C106.236 375.223 103.802 374.507 101.483 373.694L100.261 374.492C98.8341 375.424 97.4044 376.352 95.9605 377.262C95.0917 377.811 93.9695 378.335 93.3624 379.131C91.4451 382.208 96.2359 385.148 99.4733 385.099C104.39 385.151 108.485 382.615 112.793 381.096C115.175 380.51 127.288 374.485 128.391 376.071C129.084 375.74 130.048 375.621 130.547 375.076C130.648 372.556 130.113 369.917 129.665 367.376C129.574 366.932 129.355 366.4 129.331 365.945C127.313 366.684 126.739 369.483 124.083 369.244C123.667 369.904 122.387 369.597 121.809 369.073C121.181 368.503 121.102 367.7 120.952 366.985L120.882 366.657C120.6 365.339 120.262 363.99 119.561 362.766ZM179.352 149.086L179.028 149.168C175.723 149.989 172.265 150.584 168.869 150.363C168.282 152.57 168.588 157.82 166.2 158.659C165.384 158.965 164.156 158.717 163.782 157.889C158.842 157.802 153.868 157.363 148.928 157.071C145.209 156.781 141.351 156.792 137.771 155.671C138.205 157.841 138.354 159.971 138.111 162.19C137.276 171.656 134.527 180.878 133.606 190.303L133.563 190.752L133.537 190.737C133.537 190.754 133.535 190.772 133.534 190.79C133.802 190.867 134.071 190.948 134.338 191.03C134.433 190.982 134.563 191.029 134.632 191.12C154.306 197.2 175.188 199.84 195.693 197.164C199.284 196.719 202.849 196.095 206.389 195.355C206.358 195.041 206.841 194.958 206.926 195.256C207.711 195.119 208.497 194.97 209.278 194.87C209.184 194.606 209.168 194.32 209.264 194.062C210.788 189.519 210.092 184.34 209.611 179.628C208.998 172.395 207.47 165.299 206.236 158.163C200.394 157.899 194.586 156.952 188.715 157.07C188.096 158.663 185.94 160.001 184.252 159.09C183.061 158.45 182.708 157.056 182.229 155.904C181.284 153.626 180.318 151.356 179.352 149.086ZM154.596 86.697C148.46 88.4979 142.174 89.7839 136.095 91.7826C131.042 93.0335 127.593 96.1833 127.38 101.555C126.963 113.062 128.233 124.627 130.149 135.967L130.249 136.479C131.313 141.944 132.266 147.505 134.274 152.714C137.206 154.068 140.534 154.454 143.741 154.611C148.422 154.847 153.102 155.09 157.778 155.395L161.444 155.631C162.508 155.699 163.987 155.518 164.786 156.34C164.857 156.456 165.001 156.442 165.111 156.514L165.132 156.529C165.249 156.608 165.367 156.799 165.535 156.762C165.808 156.678 165.913 156.136 165.977 155.877L165.983 155.854C166.339 154.47 166.597 153.055 166.926 151.664C167.676 148.925 167.999 146.03 169.138 143.409C167.507 142.375 165.971 141.193 164.654 139.79L163.065 139.234C159.266 137.909 155.423 136.626 151.462 135.832C151.367 136.696 150.12 137.189 149.654 136.286C148.883 133.983 148.74 131.482 148.208 129.109C147.001 122.028 145.567 114.972 144.732 107.834C147.034 114.156 148.227 121.915 149.986 128.748C150.068 128.7 150.18 128.728 150.184 128.84C156.413 126.499 163.329 126.594 169.477 129.078C171.017 129.692 172.581 130.243 174.113 130.876C174.636 131.169 175.678 131.151 175.854 131.793C176.042 131.358 176.295 130.95 176.631 130.675C176.735 130.46 177.926 130.077 178.042 130.501C185.026 131.454 191.817 134.473 199.003 133.963C198.153 130.878 198.253 127.547 198.196 124.362L198.214 124.003C198.362 120.865 198.469 116.981 199.539 114.399C198.854 120.9 199.352 127.412 200.188 133.853C205.256 133.203 202.922 136.083 199.546 135.975C192.734 136.462 186.446 133.469 180.176 131.287C176.752 129.927 176.363 131.079 176.516 134.312C176.519 138.521 178.438 142.363 180.176 146.097L180.957 147.842C182.254 150.744 183.534 153.628 184.795 156.565C190.303 154.75 196.505 155.746 202.212 156.077C206.566 156.62 209.693 156.427 213.377 153.925C214.706 151.402 216.456 149.01 217.141 146.165C217.935 143.558 218.199 140.827 218.431 138.124L218.222 137.368C215.537 127.667 212.566 118.013 208.506 108.773L208.287 108.264C206.91 105.063 205.512 101.705 202.728 99.4638C198.054 96.0353 192.274 94.5146 187.361 91.464L187.33 91.6871C186.832 95.1866 185.97 98.8143 183.716 101.63C179.551 106.712 171.686 106.855 166.356 103.554C160.81 100.508 157.483 94.8362 155.865 88.9077L155.846 88.8425C155.694 88.3141 155.273 86.7144 154.596 86.697ZM169.655 143.73C169.652 145.593 169.282 147.43 169.032 149.27C171.914 148.705 174.789 148.31 177.624 147.546C174.862 146.509 172.178 145.26 169.655 143.73ZM162.714 128.699C158.51 127.882 154.206 128.371 150.05 129.029C150.501 131.116 151.017 133.183 151.448 135.272C152.937 135.204 167.057 137.688 165.464 139.683C167.548 140.79 169.523 142.092 171.598 143.224C173.684 144.362 175.857 145.34 178.098 146.134L177.98 145.873C176.051 141.591 174.249 136.773 175.735 132.093C173.736 132.89 171.008 131.178 169.072 130.538C167.016 129.718 164.899 129.072 162.714 128.699ZM132.45 112.12C132.464 111.339 134.892 113.579 135.209 113.811L135.401 113.984C137.731 116.085 140.033 118.396 141.331 121.279C141.426 124.112 137.176 117.248 136.587 116.829C135.301 115.185 133.735 113.757 132.45 112.12ZM199.645 118.789C198.988 119.004 200.781 116.79 201.48 116.952C201.758 116.912 202.001 117.312 201.692 117.45L201.538 117.517C200.821 117.826 200.087 118.091 199.645 118.789Z" fill="black"/>
<path fill-rule="evenodd" clip-rule="evenodd" d="M180.966 87.1526C178.142 87.1691 175.742 86.373 173.91 85.056C171.625 84.2464 168.869 82.9976 167.194 81.6867C166.541 81.8523 165.76 81.163 165.26 80.7992C162.153 78.4937 159.714 75.119 158.991 71.7387C157.875 73.138 156.287 73.1962 154.766 72.5007C151.578 70.7042 151.697 66.9215 152.845 64.0954C150.432 58.7159 148.759 44.5148 152.443 38.7835C153.196 37.9259 154.302 37.413 155.098 36.5336C155.807 35.7655 156.48 34.9799 157.305 34.3722C159.819 32.4705 164.151 31.458 166.863 30.9818C178.184 28.5501 186.882 32.9209 197.136 36.6078C196.546 38.0741 195.73 39.4113 194.794 40.6582C197.34 41.6023 196.171 43.725 194.196 44.8011L193.02 44.2333C194.853 50.749 199.071 66.9519 197.251 72.1551C195.8 80.2728 189.43 87.2115 180.966 87.1526" fill="white"/>
<path fill-rule="evenodd" clip-rule="evenodd" d="M182.601 87.8516C178.935 88.2256 174.579 87.3644 172.134 84.405C172.061 84.3164 172.029 84.2162 172.027 84.1193C172.025 84.0116 172.061 83.9076 172.124 83.8266C172.19 83.7415 172.284 83.6822 172.392 83.663C172.483 83.6468 172.587 83.6572 172.693 83.7167L172.918 83.841C174.587 84.7571 176.321 85.5383 178.213 85.8727C180.161 86.2169 182.145 86.1784 184.075 85.7412C187.592 84.9452 190.438 82.9144 192.533 80.2367C194.87 77.2486 196.274 73.4554 196.632 69.662C197.065 65.0648 196.06 60.4956 195.019 56.0444C193.926 51.3673 192.73 46.714 191.342 42.1147C191.3 41.9763 191.289 41.8467 191.301 41.7273C190.891 41.5679 190.456 41.6122 190.022 41.7577C189.229 42.0236 188.44 42.6231 187.781 43.118C187.543 43.2972 187.321 43.4638 187.122 43.5994C186.305 44.1545 185.412 44.5539 184.414 44.6168C183.376 44.6819 182.359 44.3614 181.416 43.9603C180.937 43.7565 180.466 43.5451 179.996 43.3345C178.66 42.735 177.339 42.1413 175.896 41.7555C173.962 41.2384 171.965 40.9837 169.962 41.0019C166.388 41.0344 162.802 41.9486 160.611 44.9522C159.724 46.1689 159.145 47.5674 159.597 49.069C159.842 49.8859 160.305 50.6274 160.811 51.3095L160.984 51.5418C161.262 51.9161 161.503 52.289 161.575 52.686C161.636 53.0186 161.589 53.3704 161.35 53.7561C161.199 53.9988 161.008 54.2165 160.815 54.4335C160.676 54.59 160.537 54.7462 160.417 54.9144C160.176 55.2535 159.962 55.6187 159.794 55.9997C159.466 56.7453 159.327 57.5474 159.298 58.3564C159.262 59.3323 159.4 60.2871 159.537 61.2432C159.635 61.9211 159.732 62.5997 159.771 63.2866C159.777 63.4064 159.741 63.4957 159.689 63.5618C159.626 63.6427 159.533 63.6937 159.428 63.7078C159.397 63.7121 159.364 63.7128 159.33 63.7098C159.347 63.7759 159.361 63.8423 159.374 63.9089C159.307 63.8241 159.237 63.7419 159.162 63.6624C159.157 63.66 159.153 63.6575 159.148 63.655C159.071 63.6131 159.006 63.5491 158.965 63.4669C158.86 63.3694 158.748 63.277 158.631 63.1901C158.021 62.738 157.308 62.47 156.594 62.4611C155.905 62.4526 155.215 62.6856 154.684 63.1777C153.629 64.1557 153.32 65.7523 153.309 67.1231C153.298 68.5224 153.623 70.2018 154.851 71.0706C155.344 71.4191 155.946 71.6285 156.552 71.6345C157.054 71.6395 157.535 71.4629 158.008 71.2947C158.154 71.2428 158.299 71.1912 158.444 71.1443C158.609 71.0911 158.759 71.0945 158.89 71.1334C159.037 71.1773 159.162 71.2679 159.256 71.3887C159.349 71.5091 159.41 71.6597 159.429 71.8175C159.447 71.9703 159.426 72.129 159.361 72.272C159.345 72.308 159.327 72.343 159.31 72.3771L159.58 72.8183C160.614 74.5035 161.666 76.1579 163.046 77.6063C163.838 78.4377 164.677 79.2222 165.598 79.909L165.731 80.007C165.811 80.0649 165.899 80.1364 165.993 80.2128C166.261 80.4311 166.583 80.7239 166.884 80.7354C166.973 80.7389 167.051 80.7278 167.122 80.7185C167.293 80.6962 167.436 80.6897 167.578 80.7469C167.691 80.7929 167.809 80.8787 167.93 81.0561C168.012 81.1762 168.054 81.3268 168.054 81.4795C168.054 81.633 168.011 81.7866 167.935 81.9079C167.779 82.1591 167.59 82.3147 167.384 82.4031C167.155 82.5016 166.902 82.5166 166.639 82.4679C165.992 82.3478 165.274 81.8146 164.818 81.4667L164.73 81.3995C163.718 80.6331 162.76 79.7851 161.917 78.8367C160.482 77.2217 159.194 75.3185 158.532 73.239C158.065 73.5435 157.489 73.6881 156.886 73.7108C156.008 73.744 155.079 73.5196 154.394 73.1969C152.885 72.4859 151.968 71.141 151.539 69.5945C151.04 67.7985 151.202 65.7337 151.834 64.1203C151.852 64.0734 151.871 64.0267 151.891 63.9793C149.947 59.0852 149.349 53.6507 149.515 48.4279C149.593 45.9831 149.761 43.4182 150.341 41.0339C150.601 39.9652 151.053 38.9475 151.775 38.1062C152.187 37.6265 152.692 37.253 153.199 36.8805C153.638 36.5579 154.079 36.236 154.45 35.8332L154.626 35.6419C154.664 35.6003 154.702 35.5588 154.74 35.5173C155.381 34.8155 156.005 34.1346 156.782 33.5591C157.684 32.8918 158.679 32.3695 159.713 31.9357C161.941 31.0015 164.339 30.4414 166.711 30.0081C171.843 29.0708 177.111 29.0245 182.18 30.3421C184.537 30.9546 186.824 31.7929 189.107 32.6303C189.319 32.7081 189.531 32.7858 189.743 32.8634C191.517 33.5125 193.293 34.1588 195.068 34.8052C195.893 35.1056 196.718 35.4059 197.543 35.7066C197.722 35.7719 197.897 35.9125 197.997 36.0871C198.095 36.2575 198.124 36.4563 198.045 36.6541C197.539 37.9285 196.9 39.124 196.123 40.2405C196.393 40.423 196.623 40.6659 196.797 40.9501C197.017 41.3095 197.147 41.7351 197.156 42.1865C197.185 43.6985 195.801 44.7234 194.652 45.4647C194.545 45.5338 194.439 45.5747 194.336 45.5934C195.449 49.8226 196.515 54.0661 197.421 58.3432L197.483 58.6397C198.416 63.1159 199.018 67.684 198.135 72.2197C197.376 76.1255 195.611 79.895 192.853 82.8046C190.151 85.6562 186.525 87.4514 182.601 87.8516ZM158.458 62.1014C157.977 60.5876 157.723 58.9406 157.907 57.4061C158.022 56.4416 158.314 55.513 158.789 54.6628C159.062 54.1759 159.393 53.7251 159.755 53.3006L159.88 53.158C159.944 53.0851 160.006 53.0182 160.026 52.9343C160.037 52.8855 160.026 52.8322 159.996 52.7685C159.93 52.6274 159.807 52.4914 159.692 52.3586C159.619 52.2742 159.548 52.1914 159.488 52.1109C158.435 50.6957 157.651 49.0108 157.906 47.2162C158.155 45.4653 159.31 43.8332 160.539 42.6032C163.247 39.8948 167.444 39.2724 171.121 39.4218C173.262 39.5087 175.399 39.8835 177.437 40.5383C178.443 40.8612 179.425 41.2545 180.381 41.7053L180.592 41.8061C180.706 41.8611 180.82 41.9166 180.934 41.9722C181.681 42.336 182.43 42.7033 183.241 42.901C184.823 43.2871 185.897 42.4739 187.025 41.6537C187.412 41.3727 187.805 41.0877 188.222 40.8376L188.308 40.7871C189.061 40.3535 189.961 40.0617 190.827 40.0748C191.578 40.0861 192.303 40.3245 192.893 40.8879C193.014 41.0036 193.084 41.1299 193.117 41.2556C193.182 41.3465 193.235 41.455 193.269 41.5831C193.481 42.3714 193.691 43.1602 193.901 43.9492L194.072 43.8394C194.581 43.5115 195.133 43.1367 195.383 42.5881C195.479 42.377 195.465 42.0252 195.344 41.7666C195.302 41.6762 195.246 41.5959 195.168 41.5457C195.112 41.5092 195.044 41.4921 194.966 41.4984C194.774 41.5229 194.598 41.4951 194.449 41.4325C194.277 41.3603 194.14 41.2415 194.051 41.0983C193.96 40.9517 193.919 40.7793 193.941 40.6006C193.96 40.4469 194.027 40.2864 194.158 40.1356C195.025 39.1429 195.755 38.0478 196.31 36.8591L192.64 35.51C191.331 35.0293 190.023 34.5491 188.713 34.0708L187.996 33.8091C185.615 32.9414 183.221 32.0935 180.745 31.5349C175.824 30.4248 170.692 30.6857 165.785 31.7306L165.489 31.7942C163.43 32.2404 161.343 32.7801 159.453 33.7184C158.525 34.1789 157.643 34.7388 156.886 35.4463C156.551 35.7587 156.249 36.1008 155.946 36.4424C155.522 36.9212 155.098 37.3986 154.594 37.8019L154.126 38.1741C153.43 38.7313 152.803 39.2741 152.41 40.1382C151.999 41.0416 151.803 42.0397 151.643 43.012C151.24 45.4616 151.081 47.9503 151.096 50.4315C151.122 54.5976 151.759 58.6788 152.564 62.7457C153.209 61.8275 154.116 61.1158 155.28 60.964C156.039 60.8651 156.792 61.0057 157.444 61.3391C157.822 61.5318 158.165 61.7889 158.458 62.1014V62.1014ZM157.238 67.0484C156.387 66.7212 155.495 66.614 154.595 66.7705C154.501 66.7868 154.411 66.7673 154.336 66.7237C154.259 66.6795 154.199 66.6096 154.166 66.5323C154.128 66.4431 154.126 66.3465 154.16 66.2607C154.189 66.1863 154.244 66.114 154.346 66.0657C155.32 65.604 156.402 65.4002 157.476 65.5452L157.583 65.5602C158.132 65.6411 158.904 65.8114 159.484 66.1467C159.939 66.4102 160.272 66.7733 160.355 67.2477C160.398 67.4949 160.336 67.753 160.193 67.94C160.054 68.1209 159.842 68.2415 159.568 68.2337C159.084 68.22 158.797 68.0168 158.452 67.7537C158.411 67.7217 158.368 67.689 158.323 67.6558C157.99 67.4082 157.626 67.1979 157.238 67.0484Z" fill="black"/>
<path fill-rule="evenodd" clip-rule="evenodd" d="M184.461 77.9833C185.422 77.8504 186.456 77.3092 187.375 77.749C187.804 77.9545 188.008 78.6575 187.718 79.0482C187.275 79.6449 186.817 79.7437 186.097 79.801C185.557 79.844 185.015 79.8472 184.477 79.7854L184.34 79.7687C183.38 79.6456 182.382 79.3793 181.638 78.7381C181.485 78.6069 181.563 78.3235 181.759 78.2825C182.642 78.0979 183.566 78.1071 184.461 77.9833ZM183.329 75.7832C183.329 75.7754 183.341 75.7754 183.341 75.7832C183.364 76.3292 183.519 76.8355 183.804 77.3027C183.808 77.3094 183.798 77.3153 183.794 77.3087C183.508 76.8412 183.353 76.3297 183.329 75.7832ZM186.361 64.513C187.321 65.0932 188.785 66.4461 187.752 67.8845C186.535 69.1528 184.783 67.6986 183.92 67.0409C183.12 66.5313 182.221 67.8422 182.963 68.4373C189.2 73.0252 191.732 64.6647 186.846 63.8308C186.309 63.7389 186.109 64.3335 186.361 64.513ZM191.278 58.0199C191.504 58.0199 191.719 58.096 191.916 58.2368C192.109 58.3753 192.284 58.5775 192.43 58.8298C192.706 59.307 192.879 59.966 192.879 60.6947C192.879 61.4233 192.706 62.0823 192.43 62.5596C192.284 62.8118 192.109 63.014 191.916 63.1525C191.719 63.2933 191.504 63.3694 191.278 63.3694C191.052 63.3694 190.837 63.2933 190.64 63.1525C190.447 63.014 190.272 62.8118 190.126 62.5596C189.85 62.0823 189.677 61.4233 189.677 60.6947C189.677 59.966 189.85 59.307 190.126 58.8298C190.272 58.5775 190.447 58.3753 190.64 58.2368C190.837 58.096 191.052 58.0199 191.278 58.0199ZM180.83 58.7631L180.915 58.7471C181.411 58.6576 181.661 58.6877 182.093 59.0233C182.417 59.2755 182.324 59.7721 182.093 60.0373C181.69 60.4994 181.296 60.4176 180.744 60.4352L180.705 60.4366C180.245 60.4552 179.784 60.4682 179.323 60.4752C179.198 60.4772 179.071 60.4767 178.945 60.4774C178.959 61.6354 178.287 62.5171 177.402 63.1875C176.83 63.6209 176.106 63.1208 175.902 62.5813C175.733 62.1349 175.697 61.5859 175.785 61.0971C175.817 60.9169 175.885 60.7213 175.988 60.5545L176.017 60.5098L176.012 60.4458C176.011 60.43 176.012 60.4148 176.012 60.399C175.19 60.3493 174.373 60.2675 173.557 60.1646L173.285 60.1296C172.588 60.0379 171.564 60.0085 171 59.5581C170.982 59.5437 170.989 59.5122 171.008 59.5022C171.318 59.3363 171.632 59.3457 171.979 59.3304L172.029 59.328C172.406 59.3087 172.782 59.2926 173.159 59.2797L173.536 59.268C174.501 59.2406 175.466 59.1941 176.43 59.1431C176.598 59.1343 176.765 59.1238 176.933 59.1135C177.108 59.0405 177.295 58.9967 177.479 58.9886C177.632 58.9818 177.779 59.0028 177.917 59.0464C178.269 59.0194 178.621 58.99 178.972 58.9583L179.323 58.9259C179.819 58.8791 180.341 58.8586 180.83 58.7631ZM186.92 50.0841C187.981 49.5665 189.27 49.5539 190.362 49.9822L190.434 50.0114C191.537 50.466 192.865 51.5162 192.578 52.8243C192.314 54.0216 190.424 53.8188 190.328 52.6871C189.718 51.847 188.35 51.6627 187.489 52.1969C186.968 52.521 186.609 53.0667 186.365 53.617C186.156 54.0857 186.117 54.6645 185.796 55.0728C185.786 55.0861 185.765 55.0885 185.75 55.085C184.794 54.8653 184.772 53.3564 184.935 52.6245C185.172 51.5604 185.931 50.5672 186.92 50.0841Z" fill="black"/>
<path fill-rule="evenodd" clip-rule="evenodd" d="M191.265 69.6269C189.48 69.3279 187.626 69.7698 185.906 70.2407C183.172 68.4577 179.631 70.2574 177.673 72.485C177.003 73.0332 175.597 73.7613 176.338 74.8072C176.057 75.5465 175.982 75.8944 176.563 75.0301C179.854 75.4065 183.386 74.6954 186.643 74.0246C187.752 74.3951 188.731 75.2615 189.95 74.9647C191.103 75.2083 192.351 75.4356 193.391 74.7009C194.184 74.669 195.947 76.0826 195.918 74.4387C195.673 72.8628 192.528 70.2407 191.265 69.6269Z" fill="white"/>
<path fill-rule="evenodd" clip-rule="evenodd" d="M192.603 74.6859C190.666 74.8989 188.701 74.5859 187.079 73.4682C186.909 73.3515 186.742 73.3528 186.606 73.4212C186.441 73.403 186.271 73.4686 186.173 73.6564C185.766 74.436 184.416 74.2623 183.673 74.2782C181.246 74.3247 178.733 74.1916 176.396 74.9209C178.631 70.5809 181.721 68.7073 186.504 70.4111C186.072 70.7566 188.226 69.9478 188.415 69.9324C191.724 69.1087 194.454 71.8659 195.787 74.598C194.778 74.3595 193.648 74.571 192.603 74.6859M197.225 75.4245C195.766 72.1596 192.889 68.5697 188.877 69.1339C188.053 69.2544 187.186 69.8135 186.357 69.7126C183.956 68.8314 181.973 68.3837 179.568 69.8085C178.548 69.8843 172.806 76.9474 175.535 76.3708C178.884 74.4598 184.708 76.2598 186.788 74.5505C190.871 77.2137 194.191 74.3207 196.492 75.9855C196.893 76.3501 197.454 75.896 197.225 75.4245" fill="black"/>
</svg>
