<svg width="390" height="406" viewBox="0 0 390 406" fill="none" xmlns="http://www.w3.org/2000/svg">
<g clip-path="url(#clip0_112_5285)">
<rect width="390" height="406" fill="#D6FCF7"/>
<path fill-rule="evenodd" clip-rule="evenodd" d="M90.9549 416.628C102.411 416.662 113.543 417.039 125.031 417.075C171.731 417.225 218.86 417.007 265.729 415.188C278.976 414.673 282.283 414.686 295.473 413.888C303.261 413.861 326.654 413.242 325.483 403.045C324.966 384.055 320.074 365.144 318.534 346.205C315.577 310.6 313.059 273.882 298.211 240.581C294.775 232.628 287.394 227.427 280.087 222.751C272.76 217.706 270.962 212.104 264.199 206.405C262.769 205.2 254.649 204.709 250.28 201.652C243.921 197.203 240.767 189.919 238.395 188.679C236.649 187.766 236.681 181.471 233.182 179.243C228.486 176.254 213.523 174.031 208.079 173.615C202.854 173.216 193.765 174.054 188.863 175.893C180.687 178.96 177.426 184.811 173.826 192.349C126.258 206.48 82.7805 230.41 69.2779 278.679C57.6338 319.161 57.2071 362.561 61.7054 404.08C62.6053 407.116 61.9746 411.875 64.7041 413.888C55.2185 414.411 89.6681 416.291 90.9549 416.628Z" fill="white"/>
<path fill-rule="evenodd" clip-rule="evenodd" d="M307.311 376.655C306.41 376.223 305.472 375.729 304.444 375.695C302.679 375.636 302.676 372.995 304.444 373.054C305.986 373.106 307.34 373.724 308.697 374.375C310.28 375.135 308.888 377.411 307.311 376.655ZM304.444 302.338C305.648 302.339 306.863 302.485 307.788 303.295C308.338 303.777 308.294 304.675 307.788 305.162C307.246 305.682 306.394 305.642 305.845 305.162C306.024 305.318 305.847 305.163 305.782 305.129C305.767 305.121 305.758 305.115 305.754 305.111C305.74 305.108 305.727 305.105 305.704 305.1C305.561 305.065 305.419 305.031 305.274 305.006C305.271 305.013 304.967 304.987 304.896 304.984C304.745 304.979 304.594 304.978 304.444 304.978C303.699 304.978 303.07 304.374 303.07 303.658C303.07 302.945 303.701 302.337 304.444 302.338ZM291.53 331.954C291.136 333.612 288.489 332.906 288.881 331.252C289.452 328.847 289.348 326.383 288.881 323.969C288.56 322.306 291.207 321.599 291.53 323.267C292.089 326.162 292.215 329.068 291.53 331.954ZM288.06 237.066C286.015 236.599 283.992 236.544 281.899 236.543C280.129 236.542 280.132 233.902 281.899 233.903C284.233 233.903 286.511 234 288.791 234.52C290.512 234.913 289.779 237.458 288.06 237.066ZM281.206 301.376C280.019 300.806 278.832 300.235 277.646 299.665C276.063 298.904 277.456 296.628 279.032 297.385L282.592 299.096C284.175 299.857 282.782 302.134 281.206 301.376ZM280.712 353.37C279.207 355.455 277.092 356.751 274.552 357.398C272.839 357.835 272.115 355.287 273.822 354.852C275.638 354.389 277.251 353.547 278.341 352.037C279.342 350.649 281.722 351.97 280.712 353.37ZM271.222 260.412C270.814 259.68 270.202 259.371 269.441 259.355C267.673 259.316 267.673 256.676 269.441 256.714C271.175 256.752 272.764 257.589 273.593 259.079C274.427 260.579 272.055 261.911 271.222 260.412ZM253.8 278.358C253.308 278.873 252.353 278.861 251.858 278.358C251.555 278.05 251.3 277.707 251.1 277.33C251.023 277.187 250.952 277.042 250.868 276.903C250.831 276.841 250.789 276.78 250.746 276.72C250.732 276.708 250.702 276.678 250.671 276.647C250.144 276.111 250.157 275.319 250.671 274.78C251.164 274.265 252.119 274.277 252.614 274.78C252.917 275.088 253.172 275.431 253.372 275.808C253.448 275.951 253.52 276.096 253.604 276.236C253.641 276.297 253.683 276.358 253.725 276.418C253.74 276.43 253.769 276.46 253.8 276.491C254.328 277.027 254.315 277.819 253.8 278.358ZM252.335 317.344C250.547 318.131 248.585 318.131 246.796 317.344C246.119 317.046 245.958 316.106 246.304 315.538C246.704 314.88 247.508 314.768 248.182 315.064C248.994 315.421 250.139 315.421 250.949 315.064C251.626 314.767 252.423 314.872 252.828 315.538C253.176 316.11 253.01 317.048 252.335 317.344ZM247.456 344.94C247.148 345.639 246.485 346.011 245.709 346.039C244.94 346.067 244.368 345.412 244.335 344.719C244.315 344.271 244.566 343.889 244.928 343.652C244.928 343.628 244.929 343.603 244.929 343.578C244.929 342.838 245.558 342.29 246.302 342.258C247.044 342.226 247.676 342.888 247.676 343.578C247.675 344.044 247.645 344.507 247.456 344.94ZM240.37 388.811C238.178 388.845 236.036 389.347 233.844 389.382C232.073 389.409 232.078 386.769 233.844 386.741C236.036 386.707 238.177 386.205 240.37 386.171C242.141 386.143 242.135 388.784 240.37 388.811ZM231.255 219.618C229.972 220.793 228.388 221.371 226.825 222.105C225.241 222.849 223.85 220.571 225.438 219.826C226.762 219.204 228.228 218.744 229.314 217.751C230.594 216.578 232.538 218.443 231.255 219.618ZM227.811 250.05C226.911 249.618 225.973 249.124 224.945 249.089C223.179 249.03 223.177 246.39 224.945 246.449C226.487 246.501 227.841 247.119 229.198 247.77C230.781 248.53 229.389 250.806 227.811 250.05ZM211.3 372.189C210.893 371.458 210.281 371.149 209.52 371.132C207.752 371.094 207.751 368.453 209.52 368.492C211.254 368.53 212.844 369.367 213.672 370.857C214.506 372.356 212.134 373.688 211.3 372.189ZM205.582 314.857C205.035 314.374 205.073 313.479 205.582 312.99C206.175 312.42 206.768 311.849 207.362 311.279C207.905 310.757 208.756 310.795 209.304 311.279C209.851 311.761 209.812 312.657 209.304 313.146C208.71 313.716 208.117 314.286 207.524 314.857C206.981 315.379 206.13 315.34 205.582 314.857ZM198.84 404.209C196.859 404.165 195.001 403.618 193.136 403.021C191.464 402.487 192.185 399.938 193.866 400.476C195.487 400.994 197.116 401.53 198.84 401.569C200.608 401.608 200.609 404.248 198.84 404.209ZM189.941 347.75C188.151 347.702 186.666 346.826 185.411 345.652C184.141 344.466 186.085 342.6 187.353 343.786C188.071 344.457 188.901 345.082 189.941 345.11C191.708 345.157 191.71 347.797 189.941 347.75ZM195.467 275.143C195.489 275.846 195.798 276.599 196.252 277.061C197.465 278.297 195.526 280.166 194.31 278.928C193.306 277.907 192.763 276.541 192.721 275.143C192.67 273.441 195.417 273.448 195.467 275.143ZM174.518 217.64C173.943 216.558 173.19 215.289 172.044 214.692C170.488 213.88 171.876 211.601 173.43 212.412C174.988 213.224 176.102 214.826 176.889 216.307C177.693 217.819 175.322 219.153 174.518 217.64ZM170.957 245.097C170.32 245.08 169.688 244.975 169.073 244.815C168.81 244.746 168.551 244.667 168.288 244.599C168.175 244.569 167.697 244.512 167.991 244.527C167.247 244.489 166.618 243.953 166.618 243.207C166.618 242.521 167.249 241.848 167.991 241.887C169.01 241.939 169.937 242.429 170.957 242.457C172.724 242.505 172.725 245.145 170.957 245.097ZM162.057 287.299H159.091C157.321 287.299 157.324 284.658 159.091 284.658H162.057C163.828 284.658 163.825 287.299 162.057 287.299ZM158.597 404.029C157.697 404.461 156.637 404.871 155.908 405.533C154.624 406.701 152.679 404.836 153.966 403.666C154.894 402.823 156.081 402.292 157.211 401.749C157.876 401.429 158.695 401.574 159.09 402.223C159.447 402.81 159.26 403.71 158.597 404.029ZM151.97 370.669C151.855 370.639 151.734 370.617 151.617 370.602C151.15 370.541 150.662 370.562 150.193 370.562C148.423 370.561 148.425 367.921 150.193 367.922C151.586 367.922 153.035 367.941 154.131 368.879C154.686 369.355 154.632 370.263 154.131 370.745C153.585 371.27 152.742 371.22 152.188 370.745C152.247 370.796 152.047 370.69 151.97 370.669ZM150.192 325.803C150.591 325.013 150.598 324.497 150.598 323.618C150.6 321.917 153.346 321.919 153.345 323.618C153.344 324.894 153.147 325.981 152.564 327.136C152.239 327.78 151.287 327.948 150.685 327.61C150.01 327.23 149.869 326.445 150.192 325.803ZM142.251 263.87C140.657 264.391 139.235 265.128 137.833 266.018C136.352 266.957 134.977 264.67 136.446 263.738C138.047 262.723 139.703 261.918 141.52 261.324C143.201 260.775 143.915 263.326 142.251 263.87ZM132.987 219.434C131.803 219.466 130.582 219.902 129.527 220.395C127.942 221.134 126.551 218.857 128.141 218.115C129.648 217.411 131.296 216.839 132.987 216.794C134.758 216.746 134.751 219.387 132.987 219.434ZM128.834 338.055C128.368 338.075 127.97 337.833 127.724 337.485C127.698 337.485 127.672 337.485 127.647 337.485C126.877 337.484 126.307 336.88 126.274 336.165C126.24 335.452 126.929 334.844 127.647 334.844C128.132 334.845 128.613 334.873 129.063 335.056C129.791 335.351 130.177 335.989 130.207 336.735C130.236 337.474 129.554 338.024 128.834 338.055ZM122.08 246.761C120.394 247.291 119.677 244.741 121.35 244.215C123.314 243.598 125.32 243.121 127.283 242.504C128.97 241.974 129.686 244.525 128.013 245.05C126.05 245.667 124.043 246.144 122.08 246.761ZM115.921 296.595C115.397 298.216 112.747 297.52 113.272 295.893C113.779 294.323 113.815 292.743 113.816 291.111C113.817 289.41 116.564 289.413 116.563 291.111C116.562 292.968 116.497 294.808 115.921 296.595ZM97.5559 356.283C97.456 356.941 96.9136 357.414 96.2035 357.445C95.4808 357.476 94.8041 356.816 94.8302 356.125C94.8807 354.796 96.0078 353.713 97.3901 353.664C98.1592 353.637 98.7312 354.291 98.7634 354.984C98.795 355.659 98.2093 356.185 97.5559 356.283ZM88.2628 280.408C86.8115 280.874 85.2607 281.317 84.1229 282.35C82.8371 283.516 80.8925 281.652 82.1806 280.483C83.681 279.122 85.6109 278.479 87.5328 277.862C89.2159 277.322 89.931 279.873 88.2628 280.408ZM81.9645 331.698C81.5655 332.354 80.7577 332.472 80.0858 332.172C79.1849 331.769 78.1902 331.783 77.219 331.782C75.4491 331.78 75.4518 329.14 77.219 329.142C78.7173 329.143 80.0995 329.279 81.4722 329.892C82.1475 330.194 82.3119 331.127 81.9645 331.698ZM78.4061 393.944C77.637 393.971 77.0651 393.317 77.0328 392.624C77.0012 391.949 77.5866 391.423 78.2406 391.325C78.3402 390.667 78.883 390.193 79.5927 390.163C80.3157 390.132 80.9924 390.792 80.966 391.483C80.9155 392.812 79.789 393.895 78.4061 393.944ZM328.635 403.927C328.168 402.313 327.1 401.009 326.293 399.557C326.023 399.068 325.929 398.763 325.782 398.405C325.583 398.788 325.197 399.076 324.615 399.077C323.5 399.077 322.196 399.008 321.155 399.467C320.478 399.765 319.681 399.659 319.276 398.993C318.929 398.421 319.095 397.484 319.769 397.187C321.303 396.511 322.952 396.437 324.615 396.436C325.026 396.436 325.337 396.582 325.557 396.8C326.193 388.43 326.177 380.055 325.576 371.679C324.934 362.729 323.457 353.957 321.912 345.122C321.164 340.838 320.193 336.511 320.381 332.148C320.57 327.815 322.503 323.775 321.133 319.429C320.584 317.686 319.643 316.089 319.032 314.366C318.376 312.511 318.435 310.68 318.733 308.759C319.348 304.848 320.367 300.983 318.736 297.165C318.016 295.472 316.848 293.96 316.285 292.211C315.585 290.036 315.681 287.63 315.564 285.376C315.327 280.828 315.266 276.251 314.874 271.713C314.699 269.68 314.318 267.752 313.449 265.888C312.615 264.092 311.376 262.459 310.823 260.554C310.274 258.68 310.226 256.703 309.93 254.785C309.621 252.759 309.137 250.762 308.485 248.815C305.965 241.277 301.347 234.505 295.891 228.634C290.093 222.393 283.161 217.693 275.803 213.314C271.934 211.011 268.065 208.708 264.199 206.405C264.117 206.837 263.83 207.234 263.28 207.411C261.828 207.877 260.278 208.32 259.139 209.352C257.854 210.519 255.909 208.654 257.197 207.486C258.541 206.266 260.23 205.624 261.949 205.06C260.187 203.993 258.406 202.887 256.419 202.271C254.678 201.73 252.11 202.202 250.698 200.974C249.59 200.007 249.239 198.215 248.814 196.901C248.282 195.271 247.822 193.551 247.145 191.967C246.685 190.885 246.016 189.845 245.171 189.007C244.8 187.634 244.12 186.38 242.918 185.617C239.774 183.617 235.911 185.604 234.528 188.456C233.384 188.452 232.179 188.693 231.067 188.759C228.78 188.898 226.49 188.961 224.2 188.954C219.72 188.941 215.236 188.66 210.793 188.089C202.848 187.066 195.141 185.004 187.33 183.396C187.285 183.297 187.234 183.198 187.172 183.099C185.49 180.386 181.298 180.845 178.657 181.872C177.524 182.311 176.371 182.865 175.722 183.895C175.035 184.34 174.441 184.881 174.046 185.452C173.229 186.631 172.597 189.007 170.939 189.205C169.847 189.334 168.738 189.132 167.629 189.284C166.242 189.469 165 189.938 163.719 190.472C153.968 194.541 143.888 199.066 133.306 200.644C130.824 201.013 128.297 201.396 126.141 202.733C124.39 203.819 123.037 205.31 121.592 206.726C120.184 208.106 119.024 208.716 117.015 208.964C114.578 209.264 112.466 209.911 110.684 211.614C109.205 213.03 108.24 214.838 107.079 216.482C105.898 218.159 104.165 219.102 102.365 220.076C98.1116 222.38 94.1495 225.162 90.6991 228.498C83.4307 235.535 79.0292 244.578 74.5934 253.389C69.797 262.921 65.3131 272.568 62.2025 282.746C59.1537 292.739 57.3409 303.02 56.5032 313.396C55.6208 324.284 55.4972 335.214 54.7625 346.109C54.3951 351.551 54.117 357 53.8355 362.445C53.5608 367.825 53.1591 373.214 53.224 378.6C53.348 389.013 55.514 399.458 59.3013 409.207C60.2455 411.633 61.2923 414.026 62.4082 416.382C63.387 418.451 66.7345 418.22 67.7851 416.382C68.0254 415.96 68.2142 415.524 68.3722 415.082C71.1188 415.105 73.893 414.9 76.6224 415.145C81.4428 415.577 86.2732 415.818 91.1073 416.105C100.673 416.676 110.255 417.055 119.824 417.58C120.752 417.631 121.681 417.682 122.609 417.735C115.79 397.447 116.674 375.514 115.595 354.414C115.508 352.713 118.256 352.723 118.342 354.414C119.425 375.604 118.503 397.594 125.563 417.915C128.302 418.093 131.037 418.311 133.763 418.63C135.967 418.884 138.182 419.184 140.407 419.079C142.93 418.963 145.395 418.409 147.857 417.927C152.331 417.052 156.639 417.448 161.13 417.986C165.933 418.564 170.754 418.884 175.588 419.085C194.945 419.9 214.432 420.643 233.783 419.399C238.466 419.098 243.138 418.676 247.791 418.102C252.584 417.511 257.325 416.518 262.114 415.953C266.835 415.399 271.175 416.92 275.841 417.201C280.599 417.488 285.485 416.534 290.199 415.986C291.737 415.807 293.276 415.633 294.816 415.46C292.834 402.399 291.707 389.239 290.612 376.085C290.471 374.389 293.218 374.403 293.358 376.085C294.444 389.137 295.546 402.198 297.526 415.156C305.688 414.243 313.859 413.319 321.937 411.897C324.237 411.494 326.524 410.838 327.9 408.864C328.92 407.402 329.126 405.61 328.635 403.927Z" fill="black"/>
<path fill-rule="evenodd" clip-rule="evenodd" d="M266.951 126.944C266.212 120.701 267.169 107.653 267.233 106.86C267.638 101.849 265.195 82.0592 260.577 83.8826C252.831 77.988 242.514 76.6863 232.866 76.0645C212.826 74.7728 191.508 77.7381 176.034 90.7018C168.382 97.4341 160.932 107.226 161.53 117.421C154.578 127.085 144.776 140.341 153.439 151.639C156.383 155.249 161.063 156.593 164.763 159.327C172.203 165.096 176.871 173.375 184.382 179.11C204.282 196.299 238.072 199.889 257.623 180.338C272.742 166.179 270.297 144.995 267.638 126.944C265.85 114.808 268.393 139.122 266.951 126.944Z" fill="white"/>
<path fill-rule="evenodd" clip-rule="evenodd" d="M206.096 49.5918C211.455 48.5522 216.958 47.9053 222.431 48.1L222.853 48.1158C226.971 48.274 232.186 48.6239 235.779 50.9258C235.985 50.7264 236.318 50.6241 236.619 50.7624C240.888 52.7211 245.584 54.1373 250.078 55.5445C254.553 56.9449 259.195 57.8693 263.884 58.2419C265.649 58.3822 267.159 60.2135 266.041 61.8561C265.776 62.2475 265.517 62.6429 265.259 63.0392C265.69 62.996 266.121 62.9514 266.553 62.9095C267.972 62.7722 269.389 64.228 269.305 65.5561C269.253 66.3914 269.159 67.2168 269.02 68.0323C269.561 68.0214 270.098 68.0993 270.617 68.3102C273.245 69.3772 273.062 72.3867 272.866 74.6765C272.593 77.854 271.357 81.2197 269.061 83.5979C270.775 85.3091 271.989 87.3527 272.712 89.7797C273.237 91.552 273.529 93.4398 273.385 95.2846L273.339 95.837C273.161 97.839 272.806 100.056 271.308 101.496C270.539 102.238 269.591 102.509 268.688 102.423C269.234 107.037 269.585 111.677 269.914 116.301L270.069 118.511C270.804 129.197 271.356 139.953 271.212 150.657C271.078 160.661 269.021 170.37 262.639 178.492C256.826 185.888 248.48 191.34 239.038 193.413C233.95 194.532 228.756 194.611 223.606 193.898C221.109 193.552 218.596 193.02 216.227 192.182C213.604 191.251 211.719 189.882 209.955 187.829C209.12 186.855 209.522 184.783 211.184 184.977C213.697 185.27 215.992 185.623 218.402 186.338L218.747 186.443C221.147 187.182 223.633 187.733 226.142 187.967C231.282 188.446 236.501 187.964 241.424 186.466C249.441 184.024 256.346 178.581 260.771 171.743C266.024 163.638 266.618 154.436 266.542 145.116C266.461 134.889 266.115 124.656 265.55 114.439L265.454 112.737C265.155 107.479 264.867 102.219 264.613 96.9579C264.534 95.3078 264.414 93.6444 264.197 91.9975C262.217 90.882 260.442 89.3441 259.285 87.4464C256.96 88.3705 254.516 89.0371 252.267 89.5685C247.057 90.8002 241.648 91.0992 236.345 90.3279C234.915 90.8959 233.456 91.3952 231.975 91.8249C231.575 91.9956 231.174 92.1632 230.774 92.3276C227.203 93.7962 223.581 95.0404 219.812 95.9513L218.886 96.1733C216.902 96.6434 214.747 97.1063 212.636 97.2516C212.289 97.3803 211.915 97.4893 211.506 97.585C209.584 98.0338 207.589 98.1757 205.618 98.0173C203.699 97.8622 202.312 95.9975 203.369 94.2516C204.142 92.9777 204.921 91.7071 205.708 90.4398C202.971 91.5355 200.146 92.4464 197.296 93.2186C194.419 93.9975 191.501 94.6543 188.578 95.2582C187.016 95.5784 185.448 95.8622 183.889 96.1823C182.773 96.4101 181.06 96.5289 180.15 97.2351C179.144 98.0107 178.859 99.8193 178.478 100.935C177.976 102.384 177.506 103.839 177.077 105.311C176.222 108.248 175.522 111.228 174.979 114.238C174.437 117.252 174.073 120.294 173.87 123.347C173.668 126.397 173.757 129.466 173.431 132.502C173.256 134.113 171.457 134.941 170.128 133.816C169.972 133.684 169.815 133.55 169.66 133.415L169.428 133.212C168.291 132.222 167.189 131.172 166.279 129.991C166.115 129.773 165.957 129.545 165.809 129.314C165.785 129.314 165.764 129.308 165.74 129.291L165.488 129.109C162.711 127.122 158.072 124.532 155.365 127.832C154.502 128.884 154.06 130.223 153.694 131.514L153.05 133.826C152.634 135.335 152.243 136.853 152.014 138.397C151.495 141.855 151.756 145.842 154.232 148.614C155.221 149.723 156.584 150.515 158.104 150.723C158.953 150.836 159.79 150.697 160.632 150.595C161.486 150.492 162.31 150.657 163.165 150.578C164.525 150.449 165.119 152.014 164.611 152.997C164.336 153.525 164.013 153.981 163.646 154.367C163.941 154.611 164.223 154.875 164.494 155.152C165.297 155.4 166.018 155.931 166.557 156.634C166.994 157.202 167.22 157.819 167.258 158.469C167.306 158.631 167.347 158.796 167.385 158.964L168.121 160.113C168.283 160.365 168.445 160.614 168.607 160.859C170.481 163.697 172.562 166.1 175.148 168.364C177.637 170.542 180.338 172.492 182.677 174.829L182.952 175.106C185.132 177.315 187.43 179.988 186.577 183.198C186.357 184.024 185.159 184.618 184.376 184.06C181.86 182.264 180.593 179.42 178.457 177.241C176.26 174.997 173.825 172.981 171.622 170.743C169.537 168.631 167.893 166.238 166.654 163.604C166.159 164.129 165.438 164.502 164.439 164.647C162.722 164.895 161.122 163.928 160.374 162.499C159.893 162.704 159.402 162.888 158.908 163.034C156.305 163.799 154.668 161.017 155.65 158.961C156.175 157.859 156.831 156.902 157.645 156.096C155.1 155.76 152.511 154.496 150.839 152.918C146.644 148.954 146.067 142.997 147.012 137.7C147.513 134.892 148.378 132.05 149.501 129.413C149.696 128.954 149.906 128.492 150.136 128.037C150.009 128.034 149.878 127.981 149.796 127.879C149.037 126.882 148.114 126.067 147.55 124.951C147.032 123.928 146.455 122.892 146.046 121.826C145.206 119.644 144.794 117.182 144.519 114.875C143.952 110.153 144.172 105.46 144.924 100.766C146.204 92.7731 149.297 85.1236 153.853 78.4114C153.605 78.2861 153.368 78.1349 153.146 77.956L153.037 77.8643L152.859 77.7098C151.559 76.5788 151.671 74.459 152.859 73.3135L153.234 72.9519C153.709 72.4982 154.119 72.1388 154.886 71.6448C155 71.5719 155.115 71.5032 155.232 71.4392C154.831 70.7257 154.691 69.8914 154.971 68.9709C155.946 65.7643 160.746 65.8778 163.788 67.2762C167.154 64.3887 170.886 61.8821 174.931 59.8525C184.565 55.0208 195.459 51.6512 206.096 49.5918ZM156.296 134.047C158.095 133.483 160.484 134.667 162.102 135.38C164.151 136.284 165.895 137.621 167.585 139.034C168.426 139.74 168.576 140.895 168.367 141.882C168.346 141.981 168.326 142.083 168.302 142.185C168.079 143.238 166.856 144.067 165.775 144.037C163.512 143.978 162.435 142.1 161.154 140.509C161.003 140.766 160.814 141.004 160.58 141.182L160.422 141.301C159.891 141.69 159.305 142.001 158.603 141.971C158.105 141.948 157.628 141.826 157.188 141.605C156.089 141.047 155.606 139.681 155.904 138.568C156.089 137.869 156.515 137.321 157.071 136.941L156.864 136.805C156.42 136.508 156.016 136.195 155.701 135.734L155.629 135.624H155.657C155.314 135.057 155.537 134.284 156.296 134.047Z" fill="black"/>
<path fill-rule="evenodd" clip-rule="evenodd" d="M241.033 167.26C238.504 167.964 235.789 168.027 233.211 167.3C230.873 166.64 228.472 165.188 226.751 163.267C225.222 161.561 224.232 159.487 224.271 157.274C224.275 157.021 224.369 156.81 224.514 156.646C224.67 156.47 224.887 156.349 225.12 156.296C225.36 156.242 225.613 156.261 225.829 156.355C226.024 156.441 226.191 156.586 226.296 156.797C226.56 157.131 226.824 157.46 227.088 157.78C229.215 160.304 231.274 162.191 234.472 162.867C236.207 163.234 237.94 163.072 239.53 162.511C241.232 161.912 242.77 160.857 243.976 159.508C244.521 158.898 245.164 158.65 245.793 158.645C246.506 158.641 247.21 158.959 247.741 159.468C248.263 159.968 248.612 160.648 248.644 161.359C248.672 161.983 248.46 162.635 247.896 163.216C246.041 165.132 243.636 166.535 241.033 167.26ZM240.956 135.645C243.548 137.16 247.499 140.693 244.71 144.448C241.427 147.76 236.7 143.963 234.371 142.246C232.211 140.915 229.784 144.338 231.788 145.892C248.62 157.87 255.45 136.042 242.267 133.864C240.816 133.624 240.277 135.177 240.956 135.645ZM216.704 128.98C215.87 128.468 214.89 128.292 213.804 128.767C212.955 129.138 211.466 130.375 210.43 132.001C209.721 133.114 209.218 134.419 209.323 135.779C209.347 136.094 209.226 136.327 209.034 136.499C208.883 136.635 208.664 136.735 208.408 136.766C208.19 136.793 207.946 136.769 207.748 136.71C207.371 136.596 207.172 136.361 207.096 136.169C206.371 134.317 206.683 132.25 207.497 130.386C208.594 127.869 210.587 125.761 211.893 125.082C214.127 123.918 216.763 123.865 219 125.05C220.905 126.059 222.096 127.687 223.28 129.347C223.532 129.7 223.782 130.05 224.04 130.395C224.558 131.084 224.609 131.768 224.409 132.354C224.187 133.004 223.62 133.552 222.912 133.839C222.258 134.105 221.498 134.142 220.826 133.869C220.259 133.639 219.737 133.191 219.408 132.429C218.852 131.147 217.927 129.732 216.704 128.98ZM259.024 131.833C258.453 132.119 258.006 132.205 257.373 132.022C257.023 131.921 256.677 131.728 256.406 131.467C256.138 131.209 255.944 130.888 255.869 130.532C255.684 129.654 255.184 128.831 254.471 128.295C253.862 127.837 253.093 127.594 252.24 127.731C251.32 127.878 250.443 128.446 249.839 129.115C249.637 129.339 249.479 129.593 249.32 129.845C249.023 130.317 248.733 130.756 248.323 131.103C248.167 131.235 247.933 131.326 247.706 131.326C247.614 131.326 247.52 131.312 247.431 131.285C246.515 130.401 246.339 129.731 246.368 129.066C246.399 128.369 246.685 127.663 247.147 127.004C248.232 125.459 250.29 124.192 251.679 123.905C253.581 123.512 255.47 123.984 256.985 125.005C258.543 126.056 259.698 127.687 260.058 129.526C260.145 129.969 260.108 130.447 259.933 130.861C259.761 131.266 259.462 131.613 259.024 131.833ZM220.898 112.505C219.757 113.575 218.406 113.74 217.039 113.887C216.279 113.97 215.673 114.037 215.076 114.166C213.436 114.522 211.815 115.058 210.337 115.83C208.791 116.636 207.106 117.61 205.894 118.856C205.606 119.153 205.334 119.464 205.062 119.776C204.814 120.06 204.575 120.334 204.323 120.598C204.034 120.902 203.759 121.219 203.486 121.536C203.317 121.804 203.284 121.87 203.25 121.938C203.198 122.041 203.139 122.156 203.071 122.28C202.978 122.449 202.869 122.634 202.754 122.802C202.564 123.109 202.462 123.194 202.374 123.232C202.228 123.294 202.089 123.325 201.955 123.308C201.828 123.293 201.709 123.235 201.592 123.139C201.006 122.663 200.833 121.882 200.851 121.053C200.878 119.794 201.361 118.401 201.806 117.545C202.841 115.555 204.276 113.486 206.002 112.001C207.971 110.306 210.126 109.022 212.6 108.138C214.138 107.588 215.919 107.083 217.594 107.147C218.8 107.193 219.952 107.537 220.902 108.398C221.486 108.926 221.767 109.678 221.767 110.429C221.767 111.194 221.476 111.965 220.898 112.505ZM261.346 122.296C261.273 122.41 261.173 122.489 261.061 122.536C260.944 122.586 260.813 122.6 260.687 122.58C260.562 122.56 260.444 122.505 260.349 122.422C260.259 122.342 260.19 122.236 260.159 122.107C259.401 118.907 257.93 116.526 254.789 114.991C253.244 114.236 251.467 113.756 249.785 113.373C249.296 113.262 248.78 113.19 248.259 113.117C246.629 112.888 244.987 112.626 243.925 111.36C243.284 110.597 243.016 109.621 243.168 108.729C243.311 107.888 243.821 107.118 244.75 106.656C247.061 105.508 249.934 106.635 252.268 107.595C252.441 107.666 252.611 107.736 252.778 107.804C255.06 108.73 257.142 109.953 258.854 111.701C260.211 113.088 261.47 115.139 261.976 117.248C262.398 119.003 262.299 120.795 261.346 122.296Z" fill="black"/>
<path fill-rule="evenodd" clip-rule="evenodd" d="M248.226 172.59C245.029 169.851 241.445 164.347 236.851 168.702C235.715 169.933 235.255 172.692 233.518 173.233C231.211 173.953 228.924 171.606 228.138 169.804C224.921 159.792 238.22 157.046 245.795 158.663C249.497 160.124 252.223 166.006 252.387 169.075C252.494 171.138 250.678 174.171 248.226 172.59ZM272.349 157.158C272.318 157.025 272.274 156.905 272.222 156.795C270.808 156.281 269.689 156.806 268.997 157.784C269.02 158.028 269.095 158.274 269.143 158.515C268.61 159.596 268.128 160.933 267.405 161.867C267.262 161.877 267.114 161.863 266.972 161.823C254.985 163.026 260.837 150.971 248.68 147.976C239.282 146.486 222.296 148.193 217.862 157.596C214.366 172.615 196.587 162.15 190.75 154.339C184.521 147.23 180.494 138.544 176.611 130.115C175.79 128.331 173.229 129.607 173.508 131.318C169.919 138.239 170.038 146.553 169.149 154.135C167.637 169.262 166.164 190.476 180.786 199.712C199.836 220.411 247.407 227.715 269.38 208.697C276.986 192.977 276.048 173.8 272.349 157.158Z" fill="black"/>
</g>
<defs>
<clipPath id="clip0_112_5285">
<rect width="390" height="406" fill="white"/>
</clipPath>
</defs>
</svg>
